<svg id="Layer_1" data-name="Layer 1" xmlns="http://www.w3.org/2000/svg" viewBox="0 0 3030.288 2348.111"><defs><style>.cls-1{fill:#85ee8b;}.cls-2{fill:#a75927;}.cls-3{fill:#a85928;}.cls-4{fill:#2773b4;}.cls-5{fill:#a85a29;}.cls-6{fill:#2672b4;}.cls-7{fill:#2470b3;}.cls-8{fill:#a85b2a;}.cls-9{fill:#a75827;}.cls-10{fill:#2571b4;}.cls-11{fill:#a95b2b;}.cls-12{fill:#a95c2b;}.cls-13{fill:#88ee8e;}.cls-14{fill:#87ee8d;}.cls-15{fill:#2370b3;}.cls-16{fill:#89ef8f;}.cls-17{fill:#ab5f30;}.cls-18{fill:#aa5e2e;}.cls-19{fill:#86ee8b;}</style></defs><path class="cls-1" d="M-4233.645-817.085v-565.487h89.289v473.861h737.6c-7.977-65.142-.833-128.152,21.691-191.634-29.207,0-55.951-.59-82.648.261-12.444.4-22.137-2.125-28.406-13.429a6.819,6.819,0,0,0-1.82-2.155c-31.46-23.167-31.951-53.574-24.984-88.816,10.765-54.453,17.47-109.707,26-164.6.707-4.549,2.225-8.971,3.487-13.923h90.932c-9.8,63.86-19.45,126.8-29.429,191.859,30.078,0,59.1.232,88.113-.329,3.2-.061,6.739-4.277,9.413-7.21,22.193-24.342,44.551-48.551,65.989-73.546,3.847-4.485,5.8-12.667,5.03-18.685-3.858-30.281-8.907-60.411-13.856-92.668,29.595,0,57.77-.315,85.912.5,2.737.079,6.7,6.806,7.634,10.994,2.746,12.346,4.253,24.966,6.186,37.11,27.307-9.535,53.215-21.932,80.508-27.3,38.62-7.6,78.22-13.566,117.473-14.019,140.669-1.626,281.387.583,422.041-1.563,32.023-.489,64.687-9.986,96.658-5.239,87.423,12.981,175.086,3.906,262.586,5.757,87.772,1.857,175.621-.262,263.425.582,121.571,1.167,226.187,44.094,309,133.716,87.166,94.33,124.48,206.872,108.292,334.478-22.651,178.555-148.8,316.483-323.776,356.033a413.565,413.565,0,0,1-89.738,9.689q-531.823.969-1063.649.207c-170.24-.322-320.78-103.678-384.547-261.842-4.045-10.033-9.3-12.843-19.8-12.832q-407.9.456-815.8.24Zm1772.021-467.789q-261.312,0-522.626.127c-17.868.021-35.883.651-53.579,2.941-172.972,22.377-304.973,184.867-277.687,370.084a325.269,325.269,0,0,0,322.258,278.466q531.832.664,1063.666,0c51.208-.037,99.985-11.965,145.835-35.087,122.5-61.773,192.019-192.1,176.268-330.3-8.732-76.625-41.668-141.584-96.8-194.8-65.228-62.958-143.8-92.174-234.706-91.693C-2113.2-1284.22-2287.415-1284.874-2461.624-1284.874Z" transform="translate(4389.629 2890.358)"/><path class="cls-1" d="M-2728.091-2049.293H-2818.2V-2065c0-68.416.327-136.834-.092-205.248-.434-70.865-12.1-139.685-39.652-205.394q-68.524-163.4-221.349-253.09a501.148,501.148,0,0,0-223.735-68.3q-221.913-14.177-386.943,134.327c-94.457,85.075-148.957,191.891-166.539,317.535a403.748,403.748,0,0,0-3.694,53.555c-.42,75.492-.217,150.987-.242,226.481,0,5.051,0,10.1,0,15.834h-89.863c-.361-4.682-.95-8.764-.951-12.847-.028-75.965-1.4-151.963.323-227.89,4.094-180.544,75.818-330.222,210.749-449.6,88.519-78.313,192.287-125.643,308.735-143.387,116.942-17.819,230.652-3.428,338.637,45.659,164.072,74.584,275.273,198.061,334.258,368.238a561.264,561.264,0,0,1,30.623,173.286c1.571,79.238.485,158.529.509,237.8C-2727.426-2055.722-2727.767-2053.407-2728.091-2049.293Z" transform="translate(4389.629 2890.358)"/><path class="cls-2" d="M-2329.409-1808.854c31.556-54.76,61.9-107.428,92.259-160.093,2.118-3.673,4.092-7.45,6.472-10.948,5.991-8.8,15.313-13.588,24.331-8.758,6.742,3.61,11.21,12.318,15.358,19.522,1.851,3.215.481,8.314.482,12.558q.018,95.524.008,191.048v16.172h-42.721v-139.416c-4.279,5.986-6.456,8.532-8.087,11.389-21.978,38.482-43.793,77.057-65.832,115.5-12.907,22.515-30.9,22.689-43.707.467-23.525-40.831-46.89-81.754-72.916-122.459v134.547h-43.229c-.308-3.973-.841-7.652-.844-11.332-.048-66.985-.139-133.97.139-200.954.026-6.357.934-13.589,4.041-18.885,8.3-14.143,27.637-12.666,36.857,2.908,19.933,33.668,39.258,67.7,58.8,101.6C-2355.547-1854.394-2343.151-1832.767-2329.409-1808.854Z" transform="translate(4389.629 2890.358)"/><path class="cls-3" d="M-1936.036-1875.772c26.7,18.973,35.221,45.542,33.5,76.755-1.617,29.285-21.321,49.974-50.5,50.267-54.27.546-108.549.324-162.823.127-17.243-.062-24.628-7.87-24.665-25.586q-.193-93.409.006-186.82c.04-18.123,7.674-25.607,26.017-25.673,42.947-.154,85.939,1.154,128.832-.38,46.939-1.678,73.16,26.32,61.638,79.8C-1926.272-1896.906-1931.593-1887.193-1936.036-1875.772Zm-160.914,84.164c47.594,0,94.216.195,140.828-.389,3.536-.045,9.343-5.113,10.125-8.708,5.17-23.765-10.258-43.811-34.591-44.8-20.74-.842-41.536-.312-62.307-.362-12.089-.03-24.178-.006-36.593-.006v-43.837c26.637,0,52.474.353,78.3-.107,22.322-.4,34.779-13.109,35.888-35.316.825-16.512-1.1-18.5-18.12-18.6-7.553-.044-15.108-.009-22.661-.009h-90.866Z" transform="translate(4389.629 2890.358)"/><path class="cls-4" d="M-3664.16-1824.8l87.686,76.149c-24.161,0-44.148.4-64.092-.342-3.968-.149-8.108-4.3-11.6-7.283-18.663-15.933-37.53-31.658-55.57-48.276-15.636-14.4-30.845-28.484-55.685-19.587v-45.632c29.015,0,57.69.031,86.364-.008,34.814-.046,46.944-12.042,46.929-46.543-.014-29.753,2.739-27.021-27.7-27.053-40.553-.044-81.106-.011-123.237-.011V-1749.5h-44.128v-13.354q0-96.967.024-193.934c.024-23.478,6.779-30.187,30.562-30.233,49.092-.1,98.186-.177,147.278.017,42.34.167,60.776,19.04,60.953,61.791.019,4.719.032,9.438-.014,14.156-.467,47.634-22.581,74.408-69.288,83.946C-3657.488-1826.741-3659.255-1826.146-3664.16-1824.8Z" transform="translate(4389.629 2890.358)"/><path class="cls-5" d="M-1546.5-1869.743c29.412,0,57.665.026,85.918-.007,35.731-.042,47.816-11.994,47.868-47.251.039-26.676.039-26.678-27.029-26.678q-54.487,0-108.974,0h-15.237v194.19h-43c-.275-3.826-.82-7.884-.823-11.943q-.08-98.321-.011-196.641c.022-21.931,6.78-28.64,28.784-28.667,51.421-.063,102.843-.148,154.263.031,34.379.119,54.26,19.88,55.1,54.3.184,7.54.076,15.089.026,22.634-.31,46.308-23.492,74.051-68.895,82.51-2.257.421-4.488.985-9.276,2.048,29.425,25.51,57.288,49.666,88.214,76.479-23.932,0-44.3.334-64.637-.319-3.515-.113-7.148-4.116-10.3-6.819-21.835-18.731-43.994-37.121-65.134-56.612-10.7-9.867-21.6-16.076-36.474-13.674-3.081.5-6.381-.356-10.389-.645Z" transform="translate(4389.629 2890.358)"/><path class="cls-6" d="M-3874.76-1749.225h-43.535v-56.422H-4069.81v56.1H-4112.7c-.293-3.771-.87-7.809-.879-11.847-.068-33.95-.236-67.9.012-101.851.554-75.8,48.3-123.193,124.258-123.493,30.19-.12,60.382-.21,90.57.079,15.024.143,23.622,7.628,23.716,22.285.431,66.954.236,133.913.265,200.87C-3874.758-1759.312-3874.76-1755.121-3874.76-1749.225ZM-3919-1942.68c-29.106,0-57.055-2.336-84.464.514-48.483,5.039-73.4,41.352-64.928,90.773H-3919Z" transform="translate(4389.629 2890.358)"/><path class="cls-7" d="M-4389.568-1867.218c0-30.669-.095-61.338.032-92.006.083-19.973,7.454-27.421,27.247-27.483,36.817-.115,73.638-.321,110.451.048,60.03.6,99.775,40.566,100.333,100.851.175,18.849,1.3,38.022-1.556,56.5-7.281,47.12-45.245,79.372-93.666,80.455-39.158.876-78.351.41-117.526.235-17.188-.077-25.1-7.988-25.242-25.179C-4389.747-1804.936-4389.567-1836.078-4389.568-1867.218Zm43.763,75.129c34.964,0,68.466,1.562,101.75-.456,30.89-1.872,48.938-23.64,49.578-54.719.272-13.19.244-26.394.028-39.586-.56-34.2-21.321-55.593-55.434-56.712-16.484-.541-33-.154-49.5-.168-15.345-.014-30.689,0-46.42,0Z" transform="translate(4389.629 2890.358)"/><path class="cls-2" d="M-2970.591-1844.825v95.33h-41.946v-236.4h41.767v95.348h151.936v-95.456h42.587v236.683h-42.107v-95.5Z" transform="translate(4389.629 2890.358)"/><path class="cls-8" d="M-2510.1-1986.728v42.516h-172.263c0,7.14,0,12.659,0,18.177,0,37.262-.08,74.524.035,111.786.056,18.15,4.179,22.319,22.641,22.385,44.354.157,88.709.054,133.064.056h16.285v42.235a62.273,62.273,0,0,1-7.961,1.01c-48.129.059-96.261.325-144.388-.053-39.262-.308-62.96-23.6-63.3-62.413-.439-49.522-.211-99.05-.064-148.575.053-17.828,6.959-26.893,21.891-26.975C-2640.025-1986.929-2575.883-1986.728-2510.1-1986.728Z" transform="translate(4389.629 2890.358)"/><path class="cls-2" d="M-1650.332-1986.685v43.024h-172.325v25.941c0,33.948-.089,67.9.039,101.843.074,19.772,4.463,24.2,24.15,24.24,49.008.106,98.017.035,147.989.035v42.086a89.032,89.032,0,0,1-9.208.933c-47.169.06-94.339.253-141.506-.023-41.559-.244-64.487-23.523-64.6-65.238q-.206-73.554.021-147.108c.046-16.572,7.077-25.5,21.664-25.58C-1780-1986.887-1715.894-1986.685-1650.332-1986.685Z" transform="translate(4389.629 2890.358)"/><path class="cls-9" d="M-3055.537-1791.593v42.205c-4.581.3-8.666.808-12.751.813-45.757.054-91.515.132-137.272,0-42.626-.122-65.562-23.053-65.7-65.615-.122-36.308-.182-72.617.021-108.924.221-39.608,23.813-63.335,63.471-63.56,47.171-.268,94.344-.08,141.517-.053,3.194,0,6.389.318,10.411.532v42.5h-15.8c-44.814,0-89.628-.11-134.441.069-17.2.069-22.076,4.947-22.15,21.815q-.235,53.754-.014,107.509c.057,17.558,5.011,22.58,22.877,22.648,44.342.169,88.684.059,133.026.061Z" transform="translate(4389.629 2890.358)"/><path class="cls-10" d="M-4291.333-1669.514c18.378,0,36.83-1.039,55.115.257,23.954,1.7,37.629,14.752,38.726,38.765,1.416,31.018,1.431,62.2-.044,93.216-1.1,23.179-13.1,36.7-36.223,37.84-39.436,1.941-79.1,1.795-118.547-.037-21.741-1.01-33.607-12.512-34.944-34.007a816.747,816.747,0,0,1-.008-101.456c1.35-21.589,14.882-31.754,36.55-34.449a71.27,71.27,0,0,1,8.453-.727c16.973-.067,33.947-.033,50.92-.033Zm-1.486,27.781c-11.787,0-23.589-.36-35.36.09-15.43.59-22.072,7.49-22.238,23.069q-.369,34.64.007,69.285c.163,14.906,6.229,22.582,20.813,23.145,24.477.944,49.03.765,73.523.059,13.074-.376,20.969-7.948,21.053-21.709.148-24.037.4-48.084-.105-72.111-.306-14.5-7.546-21.2-22.332-21.736C-4269.231-1642.063-4281.031-1641.726-4292.819-1641.733Z" transform="translate(4389.629 2890.358)"/><path class="cls-11" d="M-3002.813-1497.334v53.514h-35.267v-186.121c13.283,1.164,26.087,3.3,38.87,3.193,26.389-.231,52.761-2.134,79.151-2.474,29.561-.38,39.4,9.4,39.851,38.49.29,18.857.4,37.733-.1,56.582-.672,25.335-11.13,36.082-36.614,36.67C-2944.7-1496.839-2972.5-1497.334-3002.813-1497.334Zm-.013-106.671c0,26.846-.367,49.835.454,72.781.105,2.933,6.31,7.943,9.839,8.078,20.233.776,40.513.529,60.774.3,9.879-.113,15.83-4.372,15.566-15.505q-.6-25.422.008-50.867c.236-10.04-3.679-14.908-13.961-14.837C-2953.635-1603.894-2977.126-1604-3002.826-1604Z" transform="translate(4389.629 2890.358)"/><path class="cls-10" d="M-3293.345-1748.53c-21.434,0-38.359.577-55.2-.365-4.822-.27-10.224-4.09-13.95-7.726-22.257-21.721-44.509-43.477-65.944-66-14.3-15.024-27.814-30.1-52.848-21.665v-43.564c.658-.431,1.509-1.459,2.155-1.344,22.259,3.981,36.494-7.808,50.531-23.129,21.309-23.259,44.1-45.194,66.866-67.055,4.177-4.011,11.155-6.685,17.023-7.051,15.483-.968,31.067-.328,51.269-.328l-122.284,119.116Z" transform="translate(4389.629 2890.358)"/><path class="cls-4" d="M-3755.109-1549.163h-114.7c-5.093,21.813-1.719,26.439,21.074,26.131,22.644-.305,45.424.078,67.871-2.36,16.683-1.812,24.186,5.1,28.723,22.256-10.662,1.742-21.005,4.612-31.421,4.908-29.711.843-59.468,1.317-89.177.637-24.41-.559-34-10.606-34.752-35.1-.647-21.2-.728-42.478.221-63.664,1-22.206,11.981-32.475,34.206-32.868,25.479-.451,50.982-.524,76.457.026,31.236.673,41.347,11.351,41.491,42.317C-3755.062-1574.637-3755.109-1562.392-3755.109-1549.163Zm-36.1-24.828c0-6.614,1.44-13.086-.44-18.38-1.6-4.5-6.834-10.617-10.794-10.874-18.735-1.217-37.586-.794-56.394-.692-8.515.046-12.944,4.563-12.8,13.292.092,5.438.017,10.879.017,16.654Z" transform="translate(4389.629 2890.358)"/><path class="cls-12" d="M-3492.3-1604.072c-33.165,0-65.17-.376-97.148.376-5.243.123-13.119,3.992-15,8.244-4.565,10.305.991,16.906,12.615,17.018,23.116.224,46.294-.838,69.328.567,10.272.627,22.689,3.228,29.875,9.674,15.8,14.167,10.2,34.244,6.909,51.881-2.823,15.109-17.056,18.332-30.027,18.542-35.368.572-70.757.187-106.131-.3-6.3-.087-12.574-2.465-20.549-4.14,3.467-8.616,6.206-15.421,8.331-20.7,33.527,0,65.918-.267,98.3.143,11.459.146,16.5-4.165,16.07-15.777-.37-10.015-4.759-14.473-14.856-14.372-23.116.233-46.241.306-69.355-.031-34.143-.5-51.008-31.9-33.268-61.765,7.149-12.038,19.064-14.557,31.791-14.6,30.2-.1,60.393-.157,90.588.042C-3489.124-1629.1-3488.353-1628.027-3492.3-1604.072Z" transform="translate(4389.629 2890.358)"/><path class="cls-13" d="M-2769.307-1502.046c5.376-23.527,5.376-23.539,25.78-22.924,25.918.783,51.838,1.5,77.75,2.426,10.363.37,17.95-2.332,17.807-14.477-.138-11.814-6.241-16.395-18.049-16.127-23.105.525-46.237.374-69.349,0-25.016-.4-34.226-9.84-34.447-34.276-.3-32.664,8.969-42.023,41.734-42.046,28.779-.021,57.56-.1,86.338.07,24.4.148,25.709,1.946,20.582,26.423-12.934,0-25.951.13-38.964-.03-20.269-.25-40.535-.7-60.8-1.061-9.066-.163-12.4,4.644-12.45,13.29-.055,9.1,3.96,12.5,12.921,12.375,23.114-.311,46.236-.241,69.352.01,14.566.157,29.534,1.935,35.969,17.21,6.984,16.579,7.324,34.767-1.754,50.4-3.75,6.458-14.527,12.2-22.27,12.412-38.6,1.064-77.257.29-115.889-.163C-2759.5-1498.584-2763.929-1500.664-2769.307-1502.046Z" transform="translate(4389.629 2890.358)"/><path class="cls-8" d="M-3179.242-1629.3c14.16-.02,28.326-.3,42.477.044,22.81.554,34.263,11.251,34.975,33.8q1.026,32.519-.029,65.093c-.626,20.307-9.819,31.274-30.232,32.149-32.489,1.393-65.136,1.462-97.614-.062-21.845-1.024-30.191-11.129-30.735-32.862-.555-22.148-.552-44.363.543-66.483,1.022-20.629,11.849-30.729,32.479-31.533C-3211.356-1629.78-3195.289-1629.28-3179.242-1629.3Zm-.706,25.211c-9.911,0-19.825.11-29.734-.031s-14.977,4.564-15,14.486c-.038,17.456-.005,34.913-.005,52.369,0,9.154,4.565,14.316,13.711,14.419,19.82.223,39.647.254,59.466-.019,8.65-.119,14.189-3.927,14.04-13.818-.271-17.924-.182-35.855-.036-53.782.08-9.718-5.139-13.544-14.124-13.587C-3161.069-1604.1-3170.508-1604.063-3179.948-1604.089Z" transform="translate(4389.629 2890.358)"/><path class="cls-14" d="M-1659.006-1629.445c14.621-.006,29.247-.229,43.863.046,21.761.409,33.637,11.129,34.484,32.779.864,22.124.789,44.327.032,66.458-.722,21.118-11.545,32.154-33,32.759-30.161.85-60.378.8-90.544.043-23.517-.587-34.19-10.122-35.394-33.33a561.927,561.927,0,0,1,1.166-69.122c1.413-19.682,12.675-28.989,32.7-29.542C-1690.145-1629.783-1674.571-1629.44-1659.006-1629.445Zm-.893,25.357c-9.911,0-19.826-.124-29.735.037-9.089.147-14.1,4.941-14.189,14.061-.173,17.455-.053,34.914-.065,52.371-.006,9.895,5.175,14.9,14.824,14.983,19.351.17,38.708.28,58.055-.052,9.261-.158,14.866-4.458,14.645-14.911-.368-17.449-.181-34.913-.067-52.37.062-9.373-4.5-14-13.732-14.088C-1640.074-1604.147-1649.986-1604.078-1659.9-1604.088Z" transform="translate(4389.629 2890.358)"/><path class="cls-14" d="M-2472.912-1629.426c15.561-.007,31.133-.36,46.682.081,20.355.576,32.505,12.521,33.009,32.862.526,21.2.35,42.423.115,63.631-.251,22.669-10.864,34.781-33.3,35.437q-45.935,1.342-91.935-.06c-22.7-.724-32.634-11.259-33.227-33.491-.588-22.078-.406-44.2.138-66.278.492-19.956,11.834-31.319,31.838-32.059C-2504.052-1629.878-2488.474-1629.418-2472.912-1629.426Zm-.5,25.325q-14.136,0-28.273,0c-9.851,0-14.892,5.124-14.982,14.782-.158,16.955-.259,33.918.092,50.867.185,8.982,4.151,15.7,14.3,15.794,19.789.185,39.587.31,59.368-.13,8.6-.192,13.851-4.536,13.668-14.28-.337-17.893-.119-35.8-.1-53.7.01-8.69-4.434-13.122-12.97-13.259C-2452.675-1604.188-2463.044-1604.061-2473.41-1604.1Z" transform="translate(4389.629 2890.358)"/><path class="cls-6" d="M-3969.2-1497.882h-35.616c0-16.036,0-31.836,0-47.637,0-14.144-.346-28.3.1-42.429.365-11.577-4.973-16.274-16.13-16.166-19.336.189-38.69.48-58.008-.147-10.094-.328-13.006,3.5-12.858,13.185.466,30.576.172,61.163.172,92.777h-35.192v-132c10.258,1.43,20.1,2.82,29.954,4.166,4.085.558,8.215,1.644,12.268,1.43,26.319-1.385,52.606-3.825,78.937-4.42,24.273-.548,35.445,9.695,36.139,33.5C-3968.489-1563.27-3969.2-1530.868-3969.2-1497.882Z" transform="translate(4389.629 2890.358)"/><path class="cls-14" d="M-1516.842-1497.052v-132.179c7.1,0,15.639-2.468,21.4.48,15.074,7.712,29.548,1.327,44.222,1.071,20.714-.362,41.443-1.879,62.128-1.374,16.522.4,28.259,10.454,28.973,27.38,1.444,34.219.431,68.542.431,103.717h-35.652c0-28.32.014-55.992-.005-83.663-.015-20.826-1.611-22.432-22.559-22.5-16.511-.05-33.061.684-49.521-.236-11.685-.654-14.4,4.054-14.146,14.745.6,25.45-.533,50.953.486,76.376.536,13.384-4.06,17.936-16.893,16.306C-1503.885-1497.674-1509.967-1497.052-1516.842-1497.052Z" transform="translate(4389.629 2890.358)"/><path class="cls-13" d="M-2073.617-1628.426v132.442c-10.412-1.574-19.777-4-29.183-4.177-14.349-.266-28.724,1.133-43.095,1.627-15.991.55-32.052,1.963-47.968,1.035-21.6-1.259-31.53-12.22-31.775-33.558-.368-32.012-.1-64.032-.1-97.23h36.232c0,7.508,0,15.309,0,23.111,0,22.153.407,44.317-.17,66.454-.269,10.33,4.5,15.31,13.8,15.6,19.311.6,38.647.445,57.973.433,9.2-.006,8.564-6.856,8.568-13.06q.028-38.886.017-77.772c0-4.621,0-9.242,0-14.906Z" transform="translate(4389.629 2890.358)"/><path class="cls-15" d="M-3500.822-1749.128H-3541.8v-236.506h40.983Z" transform="translate(4389.629 2890.358)"/><path class="cls-8" d="M-3372.642-1604.588c0,23.74.316,44.915-.131,66.074-.231,10.947,4.654,15.6,15.117,15.573,13.181-.037,26.362-.009,40.576-.009,1.1,7.509,2.091,14.283,3.667,25.047-22.821,0-43.915,1.115-64.834-.319-20.254-1.388-28.569-10.607-29.67-31-1.041-19.292-.479-38.67-.606-58.011-.033-5.083,0-10.166,0-16.161l-22.973-1.234v-24.505c33.995,4.974,20.595-25.044,30.147-39.664h28.423v39.192h60.77v25.015Z" transform="translate(4389.629 2890.358)"/><path class="cls-13" d="M-2018.535-1604.908v-24.439c21.7,4.871,23.8-9.73,26.2-25.1,2.644-16.93,5.508-17.846,32.706-13.275v37.594h61.017v25.261h-60.308c0,25.5-.61,49.341.7,73.082.183,3.308,9.6,8.132,15.12,8.709,12.535,1.31,25.3.412,38.741.412,1.365,7.3,2.541,13.591,4,21.415-26.1,4.1-51.58,8.061-76.818.379-16.683-5.078-17.866-20.652-18.283-34.9-.645-22.063-.17-44.159-.17-67.4Z" transform="translate(4389.629 2890.358)"/><path class="cls-16" d="M-2327.657-1683.072h35.376v184.821h-35.376Z" transform="translate(4389.629 2890.358)"/><path class="cls-17" d="M-1669.289-1888.759v42.023h-135.067v-42.023Z" transform="translate(4389.629 2890.358)"/><path class="cls-18" d="M-2665.025-1846.65v-42.23h135.08v42.23Z" transform="translate(4389.629 2890.358)"/><path class="cls-19" d="M-1806.788-1497.124c-9.745,0-18.677.765-27.345-.415-3.033-.412-7.706-5.576-7.748-8.624q-.795-57.217.01-114.446c.042-2.969,4.861-7.982,7.948-8.394,8.669-1.157,17.594-.4,27.135-.4Z" transform="translate(4389.629 2890.358)"/><path class="cls-13" d="M-1823.682-1686.134c14.984-.1,22.228,6.237,22.153,19.392-.066,11.533-8.528,19.211-21.4,19.417-13.47.215-22.389-7.892-22.079-20.068C-1844.682-1680.107-1837.938-1686.035-1823.682-1686.134Z" transform="translate(4389.629 2890.358)"/><path class="cls-19" d="M-2687.491-959.4c.006-49.3,38.43-87.49,87.93-87.393,48.235.094,87.463,38.915,87.582,86.673.121,48.642-39.253,88.569-87.5,88.728C-2647.823-871.233-2687.5-910.9-2687.491-959.4Z" transform="translate(4389.629 2890.358)"/><path class="cls-19" d="M-2047.208-1046.791c48.3.114,87.526,39.182,87.53,87.169,0,48.583-40.195,88.711-88.382,88.226-48.785-.491-87.4-40.013-87.116-89.157C-2134.894-1009.109-2096.338-1046.907-2047.208-1046.791Z" transform="translate(4389.629 2890.358)"/><path class="cls-1" d="M-2788.8-959.938a87.751,87.751,0,0,1-87.584,88.542c-47.742.174-88.4-40.956-87.918-88.949.476-47.793,40-86.436,88.425-86.447C-2826.812-1046.8-2788.947-1009.037-2788.8-959.938Z" transform="translate(4389.629 2890.358)"/><path class="cls-19" d="M-2236.611-959.5c.055,48.3-38.653,87.7-86.509,88.046-47.952.352-89.081-40.288-88.871-87.815.211-47.879,39.527-87.286,87.257-87.456C-2274.919-1046.906-2236.667-1009.045-2236.611-959.5Z" transform="translate(4389.629 2890.358)"/></svg>